<?xml version="1.0" encoding="utf-8"?>
<!-- Generator: Adobe Illustrator 16.0.0, SVG Export Plug-In . SVG Version: 6.00 Build 0)  -->
<!DOCTYPE svg PUBLIC "-//W3C//DTD SVG 1.1//EN" "http://www.w3.org/Graphics/SVG/1.1/DTD/svg11.dtd">
<svg version="1.1" id="Layer_1" xmlns="http://www.w3.org/2000/svg" xmlns:xlink="http://www.w3.org/1999/xlink" x="0px" y="0px"
	 width="249.702px" height="45.034px" viewBox="0 0 249.702 45.034" enable-background="new 0 0 249.702 45.034"
	 xml:space="preserve">
<g>
	<g>
		<defs>
			<polygon id="SVGID_1_" points="103.944,10.557 103.944,37.544 123.365,37.544 123.365,33.259 108.5,33.259 108.5,26.039 
				121.434,26.039 121.434,21.983 108.5,21.983 108.5,14.842 122.901,14.842 122.901,10.557 			"/>
		</defs>
		<clipPath id="SVGID_2_">
			<use xlink:href="#SVGID_1_"  overflow="visible"/>
		</clipPath>
		
			<linearGradient id="SVGID_3_" gradientUnits="userSpaceOnUse" x1="-505.2734" y1="484.8408" x2="-504.2734" y2="484.8408" gradientTransform="matrix(0 37.6579 37.6579 0 -18144.3496 19036.0898)">
			<stop  offset="0" style="stop-color:#108CCC"/>
			<stop  offset="1" style="stop-color:#127DC2"/>
		</linearGradient>
		<rect x="103.944" y="10.557" clip-path="url(#SVGID_2_)" fill="url(#SVGID_3_)" width="19.421" height="26.987"/>
	</g>
	<g>
		<defs>
			<polygon id="SVGID_4_" points="137.919,17.004 133.365,23.761 128.962,17.004 123.673,17.004 130.583,27.081 123.287,37.544 
				128.343,37.544 133.132,30.71 138.037,37.544 143.364,37.544 135.875,27.043 143.055,17.004 			"/>
		</defs>
		<clipPath id="SVGID_5_">
			<use xlink:href="#SVGID_4_"  overflow="visible"/>
		</clipPath>
		
			<linearGradient id="SVGID_6_" gradientUnits="userSpaceOnUse" x1="-505.2734" y1="484.8389" x2="-504.2734" y2="484.8389" gradientTransform="matrix(0 37.6579 37.6579 0 -18124.6621 19036.0898)">
			<stop  offset="0" style="stop-color:#108CCC"/>
			<stop  offset="1" style="stop-color:#127DC2"/>
		</linearGradient>
		<rect x="123.287" y="17.004" clip-path="url(#SVGID_5_)" fill="url(#SVGID_6_)" width="20.077" height="20.54"/>
	</g>
	<g>
		<defs>
			<path id="SVGID_7_" d="M150.352,32.119c-1.185-1.247-1.776-2.851-1.776-4.808c0-1.955,0.592-3.584,1.776-4.883
				c1.185-1.3,2.639-1.95,4.362-1.95c1.725,0,3.205,0.65,4.44,1.95c1.235,1.299,1.853,2.934,1.853,4.903
				c0,1.969-0.631,3.571-1.892,4.807c-1.262,1.236-2.741,1.853-4.44,1.853C152.977,33.991,151.537,33.368,150.352,32.119
				 M148.653,20.595v-3.591h-4.323v28.03h4.323V34.455c2.06,2.266,4.382,3.397,6.97,3.397c2.586,0,4.852-0.99,6.795-2.973
				c1.942-1.98,2.914-4.557,2.914-7.723s-0.979-5.699-2.933-7.605c-1.957-1.904-4.312-2.856-7.065-2.856
				S150.352,17.995,148.653,20.595"/>
		</defs>
		<clipPath id="SVGID_8_">
			<use xlink:href="#SVGID_7_"  overflow="visible"/>
		</clipPath>
		
			<linearGradient id="SVGID_9_" gradientUnits="userSpaceOnUse" x1="-505.2734" y1="484.8408" x2="-504.2734" y2="484.8408" gradientTransform="matrix(0 37.6579 37.6579 0 -18103.1621 19036.0898)">
			<stop  offset="0" style="stop-color:#108CCC"/>
			<stop  offset="1" style="stop-color:#127DC2"/>
		</linearGradient>
		<rect x="144.33" y="16.696" clip-path="url(#SVGID_8_)" fill="url(#SVGID_9_)" width="21.002" height="28.338"/>
	</g>
	<g>
		<defs>
			<rect id="SVGID_10_" x="167.242" y="8.896" width="4.324" height="28.648"/>
		</defs>
		<clipPath id="SVGID_11_">
			<use xlink:href="#SVGID_10_"  overflow="visible"/>
		</clipPath>
		
			<linearGradient id="SVGID_12_" gradientUnits="userSpaceOnUse" x1="-505.2734" y1="484.8408" x2="-504.2734" y2="484.8408" gradientTransform="matrix(0 37.6579 37.6579 0 -18088.5996 19036.0898)">
			<stop  offset="0" style="stop-color:#108CCC"/>
			<stop  offset="1" style="stop-color:#127DC2"/>
		</linearGradient>
		<rect x="167.242" y="8.896" clip-path="url(#SVGID_11_)" fill="url(#SVGID_12_)" width="4.324" height="28.648"/>
	</g>
	<g>
		<defs>
			<path id="SVGID_13_" d="M179.632,32.119c-1.223-1.247-1.834-2.862-1.834-4.845c0-1.981,0.611-3.597,1.834-4.846
				c1.223-1.248,2.773-1.873,4.654-1.873c1.877,0,3.43,0.625,4.651,1.873c1.222,1.249,1.834,2.864,1.834,4.846
				c0,1.982-0.612,3.598-1.834,4.845c-1.222,1.249-2.774,1.872-4.651,1.872C182.406,33.991,180.855,33.368,179.632,32.119
				 M176.564,19.765c-2.061,2.047-3.089,4.551-3.089,7.51c0,2.961,1.028,5.463,3.089,7.51c2.059,2.046,4.632,3.068,7.723,3.068
				c3.088,0,5.661-1.022,7.721-3.068c2.059-2.047,3.089-4.549,3.089-7.51c0-2.959-1.03-5.463-3.089-7.51
				c-2.06-2.047-4.633-3.069-7.721-3.069C181.196,16.696,178.623,17.718,176.564,19.765"/>
		</defs>
		<clipPath id="SVGID_14_">
			<use xlink:href="#SVGID_13_"  overflow="visible"/>
		</clipPath>
		
			<linearGradient id="SVGID_15_" gradientUnits="userSpaceOnUse" x1="-505.2734" y1="484.8398" x2="-504.2734" y2="484.8398" gradientTransform="matrix(0 37.6579 37.6579 0 -18073.7246 19036.0898)">
			<stop  offset="0" style="stop-color:#108CCC"/>
			<stop  offset="1" style="stop-color:#127DC2"/>
		</linearGradient>
		<rect x="173.475" y="16.696" clip-path="url(#SVGID_14_)" fill="url(#SVGID_15_)" width="21.621" height="21.157"/>
	</g>
	<g>
		<defs>
			<path id="SVGID_16_" d="M204.085,17.969c-1.195,0.825-2.142,1.879-2.836,3.167v-4.132h-4.326v20.54h4.326v-8.803
				c0-2.342,0.539-4.209,1.621-5.6c1.08-1.389,2.688-2.083,4.825-2.083h0.231l-0.038-4.362
				C206.55,16.721,205.283,17.146,204.085,17.969"/>
		</defs>
		<clipPath id="SVGID_17_">
			<use xlink:href="#SVGID_16_"  overflow="visible"/>
		</clipPath>
		
			<linearGradient id="SVGID_18_" gradientUnits="userSpaceOnUse" x1="-505.2734" y1="484.8389" x2="-504.2734" y2="484.8389" gradientTransform="matrix(0 37.6579 37.6579 0 -18055.5684 19036.0898)">
			<stop  offset="0" style="stop-color:#108CCC"/>
			<stop  offset="1" style="stop-color:#127DC2"/>
		</linearGradient>
		<rect x="196.923" y="16.696" clip-path="url(#SVGID_17_)" fill="url(#SVGID_18_)" width="11.004" height="20.848"/>
	</g>
	<g>
		<defs>
			<path id="SVGID_19_" d="M213.609,21.851c1.26-0.967,2.682-1.449,4.266-1.449s2.916,0.464,3.996,1.39
				c1.08,0.927,1.621,2.252,1.621,3.977h-11.775C211.716,24.122,212.347,22.815,213.609,21.851 M210.481,19.552
				c-2.06,1.906-3.089,4.473-3.089,7.703s1.01,5.805,3.031,7.723c2.021,1.918,4.472,2.875,7.354,2.875
				c3.552,0,6.435-1.145,8.649-3.436l-2.473-2.703c-1.336,1.622-3.293,2.434-5.867,2.434c-1.621,0-3.064-0.457-4.324-1.371
				c-1.262-0.914-1.944-2.117-2.047-3.61h16.1v-2.972c0-2.961-0.979-5.283-2.934-6.971c-1.957-1.685-4.332-2.528-7.123-2.528
				C214.966,16.696,212.541,17.648,210.481,19.552"/>
		</defs>
		<clipPath id="SVGID_20_">
			<use xlink:href="#SVGID_19_"  overflow="visible"/>
		</clipPath>
		
			<linearGradient id="SVGID_21_" gradientUnits="userSpaceOnUse" x1="-505.2734" y1="484.8389" x2="-504.2734" y2="484.8389" gradientTransform="matrix(0 37.6579 37.6579 0 -18040.3809 19036.0898)">
			<stop  offset="0" style="stop-color:#108CCC"/>
			<stop  offset="1" style="stop-color:#127DC2"/>
		</linearGradient>
		<rect x="207.392" y="16.696" clip-path="url(#SVGID_20_)" fill="url(#SVGID_21_)" width="20.424" height="21.157"/>
	</g>
	<g>
		<defs>
			<path id="SVGID_22_" d="M236.714,17.969c-1.196,0.825-2.143,1.879-2.838,3.167v-4.132h-4.324v20.54h4.324v-8.803
				c0-2.342,0.541-4.209,1.621-5.6c1.082-1.389,2.69-2.083,4.826-2.083h0.232l-0.038-4.362
				C239.179,16.721,237.912,17.146,236.714,17.969"/>
		</defs>
		<clipPath id="SVGID_23_">
			<use xlink:href="#SVGID_22_"  overflow="visible"/>
		</clipPath>
		
			<linearGradient id="SVGID_24_" gradientUnits="userSpaceOnUse" x1="-505.2734" y1="484.8389" x2="-504.2734" y2="484.8389" gradientTransform="matrix(0 37.6579 37.6579 0 -18022.9434 19036.0898)">
			<stop  offset="0" style="stop-color:#108CCC"/>
			<stop  offset="1" style="stop-color:#127DC2"/>
		</linearGradient>
		<rect x="229.552" y="16.696" clip-path="url(#SVGID_23_)" fill="url(#SVGID_24_)" width="11.004" height="20.848"/>
	</g>
	<g>
		<defs>
			<path id="SVGID_25_" d="M77.956,16.645c-0.661,0.66-0.99,1.469-0.99,2.426s0.329,1.767,0.99,2.426
				c0.66,0.66,1.468,0.99,2.426,0.99c0.957,0,1.766-0.33,2.426-0.99c0.661-0.659,0.99-1.469,0.99-2.426s-0.329-1.766-0.99-2.426
				c-0.66-0.659-1.469-0.99-2.426-0.99C79.424,15.655,78.616,15.986,77.956,16.645"/>
		</defs>
		<clipPath id="SVGID_26_">
			<use xlink:href="#SVGID_25_"  overflow="visible"/>
		</clipPath>
		
			<linearGradient id="SVGID_27_" gradientUnits="userSpaceOnUse" x1="-505.2744" y1="484.8408" x2="-504.2717" y2="484.8408" gradientTransform="matrix(0 37.6579 37.6579 0 -18177.6309 19036.0898)">
			<stop  offset="0" style="stop-color:#108CCC"/>
			<stop  offset="1" style="stop-color:#127DC2"/>
		</linearGradient>
		<rect x="76.966" y="15.655" clip-path="url(#SVGID_26_)" fill="url(#SVGID_27_)" width="6.832" height="6.833"/>
	</g>
	<g>
		<defs>
			<polygon id="SVGID_28_" points="72.246,10.457 65.349,27.701 58.451,10.457 51.903,10.457 62.791,37.544 67.907,37.544 
				78.766,10.457 			"/>
		</defs>
		<clipPath id="SVGID_29_">
			<use xlink:href="#SVGID_28_"  overflow="visible"/>
		</clipPath>
		
			<linearGradient id="SVGID_30_" gradientUnits="userSpaceOnUse" x1="-505.2734" y1="484.8389" x2="-504.2734" y2="484.8389" gradientTransform="matrix(0 37.6579 37.6579 0 -18192.6621 19036.0898)">
			<stop  offset="0" style="stop-color:#108CCC"/>
			<stop  offset="1" style="stop-color:#127DC2"/>
		</linearGradient>
		<rect x="51.903" y="10.457" clip-path="url(#SVGID_29_)" fill="url(#SVGID_30_)" width="26.863" height="27.087"/>
	</g>
	<g>
		<defs>
			<path id="SVGID_31_" d="M83.241,23.3c-0.826,0.518-1.779,0.779-2.859,0.779c-1.032,0-1.947-0.241-2.748-0.717
				c-0.067-0.022-0.13-0.043-0.197-0.065v14.247h5.812V23.297C83.246,23.298,83.244,23.299,83.241,23.3"/>
		</defs>
		<clipPath id="SVGID_32_">
			<use xlink:href="#SVGID_31_"  overflow="visible"/>
		</clipPath>
		
			<linearGradient id="SVGID_33_" gradientUnits="userSpaceOnUse" x1="-505.2734" y1="484.8398" x2="-504.2734" y2="484.8398" gradientTransform="matrix(0 37.6579 37.6579 0 -18177.6621 19036.0898)">
			<stop  offset="0" style="stop-color:#108CCC"/>
			<stop  offset="1" style="stop-color:#127DC2"/>
		</linearGradient>
		<rect x="77.437" y="23.297" clip-path="url(#SVGID_32_)" fill="url(#SVGID_33_)" width="5.812" height="14.247"/>
	</g>
	<g>
		<defs>
			<path id="SVGID_34_" d="M78.861,14.055c4.95-0.632,8.001,3.71,8.828,5.271c-0.417,0.586-0.943,1.39-1.732,2.175h0.028h2.868
				h5.711l-9.843,11.236v4.807h18.136V32.7H92.161l10.114-11.471v-4.533h-0.335h-9.985h-1.434c-2.597-3.749-5.98-6.173-10.244-6.173
				L78.861,14.055z"/>
		</defs>
		<clipPath id="SVGID_35_">
			<use xlink:href="#SVGID_34_"  overflow="visible"/>
		</clipPath>
		
			<linearGradient id="SVGID_36_" gradientUnits="userSpaceOnUse" x1="-505.2739" y1="484.8389" x2="-504.2733" y2="484.8389" gradientTransform="matrix(0 37.6579 37.6579 0 -18167.1309 19036.0898)">
			<stop  offset="0" style="stop-color:#108CCC"/>
			<stop  offset="1" style="stop-color:#127DC2"/>
		</linearGradient>
		<rect x="78.861" y="10.523" clip-path="url(#SVGID_35_)" fill="url(#SVGID_36_)" width="23.996" height="27.021"/>
	</g>
	<text transform="matrix(1 0 0 1 242.4165 19.0723)" fill="#127DC2" font-family="'Montserrat-Regular'" font-size="9.8913">®</text>
	<g>
		<defs>
			<polygon id="SVGID_37_" points="16.18,30.118 24.272,43.819 32.364,30.118 			"/>
		</defs>
		<clipPath id="SVGID_38_">
			<use xlink:href="#SVGID_37_"  overflow="visible"/>
		</clipPath>
		
			<linearGradient id="SVGID_39_" gradientUnits="userSpaceOnUse" x1="-488.7417" y1="504.8076" x2="-487.7412" y2="504.8076" gradientTransform="matrix(0 13.7 13.7 0 -6891.6011 6725.8809)">
			<stop  offset="0" style="stop-color:#58A4D4"/>
			<stop  offset="0.1866" style="stop-color:#4797CD"/>
			<stop  offset="0.464" style="stop-color:#3088C6"/>
			<stop  offset="0.7374" style="stop-color:#1F80C2"/>
			<stop  offset="1" style="stop-color:#177EC1"/>
		</linearGradient>
		<rect x="16.18" y="30.118" clip-path="url(#SVGID_38_)" fill="url(#SVGID_39_)" width="16.184" height="13.701"/>
	</g>
	<g>
		<defs>
			<polygon id="SVGID_40_" points="8.09,16.421 16.182,30.121 24.274,16.421 			"/>
		</defs>
		<clipPath id="SVGID_41_">
			<use xlink:href="#SVGID_40_"  overflow="visible"/>
		</clipPath>
		
			<linearGradient id="SVGID_42_" gradientUnits="userSpaceOnUse" x1="-488.6899" y1="504.8701" x2="-487.6899" y2="504.8701" gradientTransform="matrix(0 13.6728 13.6728 0 -6886.7949 6698.1641)">
			<stop  offset="0" style="stop-color:#BD2B5B"/>
			<stop  offset="0.1732" style="stop-color:#C92955"/>
			<stop  offset="0.454" style="stop-color:#D9264D"/>
			<stop  offset="0.7316" style="stop-color:#E42549"/>
			<stop  offset="1" style="stop-color:#E92447"/>
		</linearGradient>
		<rect x="8.09" y="16.421" clip-path="url(#SVGID_41_)" fill="url(#SVGID_42_)" width="16.184" height="13.7"/>
	</g>
	<g>
		<defs>
			<polygon id="SVGID_43_" points="24.271,16.421 32.363,30.12 40.456,16.421 			"/>
		</defs>
		<clipPath id="SVGID_44_">
			<use xlink:href="#SVGID_43_"  overflow="visible"/>
		</clipPath>
		
			<linearGradient id="SVGID_45_" gradientUnits="userSpaceOnUse" x1="-488.7393" y1="504.8105" x2="-487.7393" y2="504.8105" gradientTransform="matrix(0 13.699 13.699 0 -6883.0342 6711.666)">
			<stop  offset="0" style="stop-color:#09A291"/>
			<stop  offset="0.219" style="stop-color:#1BA493"/>
			<stop  offset="0.4461" style="stop-color:#37AA9B"/>
			<stop  offset="0.6769" style="stop-color:#54B4A7"/>
			<stop  offset="0.9089" style="stop-color:#73C4BB"/>
			<stop  offset="1" style="stop-color:#80CEC5"/>
		</linearGradient>
		<rect x="24.271" y="16.421" clip-path="url(#SVGID_44_)" fill="url(#SVGID_45_)" width="16.185" height="13.699"/>
	</g>
	<g>
		<defs>
			<polygon id="SVGID_46_" points="32.364,2.724 40.456,16.423 48.548,2.724 			"/>
		</defs>
		<clipPath id="SVGID_47_">
			<use xlink:href="#SVGID_46_"  overflow="visible"/>
		</clipPath>
		
			<linearGradient id="SVGID_48_" gradientUnits="userSpaceOnUse" x1="-527.8896" y1="511.1963" x2="-526.8896" y2="511.1963" gradientTransform="matrix(-11.992 7.2333 7.2333 11.992 -9978.6191 -2307.7295)">
			<stop  offset="0" style="stop-color:#D9E257"/>
			<stop  offset="0.0898" style="stop-color:#D3DF50"/>
			<stop  offset="0.4" style="stop-color:#C4D940"/>
			<stop  offset="0.7059" style="stop-color:#BAD537"/>
			<stop  offset="1" style="stop-color:#B7D435"/>
		</linearGradient>
		<polygon clip-path="url(#SVGID_47_)" fill="url(#SVGID_48_)" points="54.606,12.769 36.681,23.581 26.305,6.378 44.23,-4.434 		
			"/>
	</g>
	<g>
		<defs>
			<polygon id="SVGID_49_" points="0,2.723 8.092,16.422 16.184,2.723 			"/>
		</defs>
		<clipPath id="SVGID_50_">
			<use xlink:href="#SVGID_49_"  overflow="visible"/>
		</clipPath>
		
			<linearGradient id="SVGID_51_" gradientUnits="userSpaceOnUse" x1="-475.6089" y1="466.79" x2="-474.6086" y2="466.79" gradientTransform="matrix(12.1667 7.0833 7.0833 -12.1667 2479.0747 9052.4209)">
			<stop  offset="0" style="stop-color:#FBDB00"/>
			<stop  offset="0.2826" style="stop-color:#FBD802"/>
			<stop  offset="0.5738" style="stop-color:#FACF0A"/>
			<stop  offset="0.8679" style="stop-color:#F8C114"/>
			<stop  offset="1" style="stop-color:#F7B917"/>
		</linearGradient>
		<polygon clip-path="url(#SVGID_50_)" fill="url(#SVGID_51_)" points="4.097,-4.314 22.141,6.191 12.087,23.459 -5.957,12.954 		
			"/>
	</g>
	<g>
		<defs>
			<polygon id="SVGID_52_" points="8.09,16.422 24.274,16.422 16.182,2.723 			"/>
		</defs>
		<clipPath id="SVGID_53_">
			<use xlink:href="#SVGID_52_"  overflow="visible"/>
		</clipPath>
		
			<linearGradient id="SVGID_54_" gradientUnits="userSpaceOnUse" x1="-475.3511" y1="467.0381" x2="-474.3511" y2="467.0381" gradientTransform="matrix(12.0871 7.037 7.037 -12.0871 2472.1909 8997.9844)">
			<stop  offset="0" style="stop-color:#F3702A"/>
			<stop  offset="0.1521" style="stop-color:#F37A29"/>
			<stop  offset="0.4428" style="stop-color:#F48926"/>
			<stop  offset="0.7282" style="stop-color:#F59125"/>
			<stop  offset="1" style="stop-color:#F59424"/>
		</linearGradient>
		<polygon clip-path="url(#SVGID_53_)" fill="url(#SVGID_54_)" points="12.187,-4.314 30.23,6.191 20.177,23.459 2.133,12.954 		"/>
	</g>
	<g>
		<defs>
			<polygon id="SVGID_55_" points="24.273,16.422 40.457,16.422 32.365,2.723 			"/>
		</defs>
		<clipPath id="SVGID_56_">
			<use xlink:href="#SVGID_55_"  overflow="visible"/>
		</clipPath>
		
			<linearGradient id="SVGID_57_" gradientUnits="userSpaceOnUse" x1="-528.0894" y1="511.4658" x2="-527.0894" y2="511.4658" gradientTransform="matrix(-11.8125 7.125 7.125 11.8125 -9847.002 -2271.23)">
			<stop  offset="0" style="stop-color:#6ABF61"/>
			<stop  offset="0.0061" style="stop-color:#6BBF61"/>
			<stop  offset="0.3451" style="stop-color:#84C44F"/>
			<stop  offset="0.6791" style="stop-color:#91C743"/>
			<stop  offset="1" style="stop-color:#96C840"/>
		</linearGradient>
		<polygon clip-path="url(#SVGID_56_)" fill="url(#SVGID_57_)" points="46.516,12.768 28.59,23.579 18.214,6.377 36.14,-4.435 		"/>
	</g>
	<g>
		<defs>
			<polygon id="SVGID_58_" points="16.181,30.12 32.365,30.12 24.273,16.421 			"/>
		</defs>
		<clipPath id="SVGID_59_">
			<use xlink:href="#SVGID_58_"  overflow="visible"/>
		</clipPath>
		
			<linearGradient id="SVGID_60_" gradientUnits="userSpaceOnUse" x1="-488.7393" y1="504.8105" x2="-487.7393" y2="504.8105" gradientTransform="matrix(0 13.699 13.699 0 -6891.1279 6711.666)">
			<stop  offset="0" style="stop-color:#376FA0"/>
			<stop  offset="0.2291" style="stop-color:#3A6D9F"/>
			<stop  offset="0.4675" style="stop-color:#40679D"/>
			<stop  offset="0.7102" style="stop-color:#495D9A"/>
			<stop  offset="0.9545" style="stop-color:#544E94"/>
			<stop  offset="1" style="stop-color:#564A93"/>
		</linearGradient>
		<rect x="16.181" y="16.421" clip-path="url(#SVGID_59_)" fill="url(#SVGID_60_)" width="16.184" height="13.699"/>
	</g>
</g>
</svg>
